<svg xmlns="http://www.w3.org/2000/svg" xml:space="preserve" width="699.99182" height="700" viewBox="0 0 699.99182 700"><path d="M663.438 374.32H532.13c-9.05 0-16.383-7.328-16.383-16.396V210.24h147.691c8.394 0 15.326 6.307 16.291 14.508.062.613.12 1.229.12 1.89v131.287c0 9.068-7.355 16.396-16.411 16.396M679.849 554.78c-.058 9.045-7.355 16.375-16.411 16.375H532.13c-9.05 0-16.365-7.33-16.383-16.374V423.433c.018-9.044 7.333-16.377 16.383-16.377h131.308c9.056 0 16.353 7.333 16.41 16.377V554.78" style="fill:#19b3b6;fill-opacity:1;fill-rule:nonzero;stroke:none;stroke-width:.306458" transform="matrix(1.33333 0 0 -1.33333 -206.473 761.54)"/><path d="M318.951 554.78c-.033 9.045-7.349 16.375-16.417 16.375H171.247c-9.04 0-16.374-7.33-16.392-16.374V423.433c.018-9.044 7.352-16.377 16.392-16.377h131.287c9.068 0 16.383 7.333 16.417 16.377V554.78M302.599 374.36h-131.4c-9.01-.013-16.344-7.35-16.344-16.387V62.578c0-9.065 7.352-16.423 16.392-16.423h131.287c9.068 0 16.417 7.358 16.417 16.423v295.395c0 9.038-7.33 16.374-16.352 16.387" style="fill:#ef2b84;fill-opacity:1;fill-rule:nonzero;stroke:none;stroke-width:.306458" transform="matrix(1.33333 0 0 -1.33333 -206.473 761.54)"/><path d="M515.765 210.288H367.85c-8.949-.132-16.206-7.429-16.206-16.423V62.639c0-9.055 7.315-16.423 16.377-16.423h147.744v164.072" style="fill:#19b3b6;fill-opacity:1;fill-rule:nonzero;stroke:none;stroke-width:.306458" transform="matrix(1.33333 0 0 -1.33333 -206.473 761.54)"/><path d="M679.79 224.759c-.934-8.164-7.87-14.471-16.297-14.471H515.765V46.155l150.327 150.327 2.976 2.979 2.176 2.17c2.347 2.555 4.278 5.448 5.681 8.657a32.251 32.251 0 0 1 2.924 13.408c0 .361-.058.714-.058 1.063" style="fill:#159296;fill-opacity:1;fill-rule:nonzero;stroke:none;stroke-width:.306458" transform="matrix(1.33333 0 0 -1.33333 -206.473 761.54)"/></svg>